<svg xmlns="http://www.w3.org/2000/svg" version="1.1" xmlns:xlink="http://www.w3.org/1999/xlink" xmlns:svgjs="http://svgjs.dev/svgjs" width="40" height="40" viewBox="0 0 128 128"><g transform="matrix(0.8046875,0,0,0.8046875,12.631350749999996,23.257151094528)"><svg viewBox="0 0 96 76" data-background-color="#ffffff" preserveAspectRatio="xMidYMid meet" height="101" width="128" xmlns="http://www.w3.org/2000/svg" xmlns:xlink="http://www.w3.org/1999/xlink"><g id="tight-bounds" transform="matrix(1,0,0,1,-0.1224239999999952,0.09924388661266903)"><svg viewBox="0 0 95.481 75.80151222677465" height="75.80151222677465" width="95.481"><g><svg viewBox="0 0 95.481 75.80151222677465" height="75.80151222677465" width="95.481"><g><svg viewBox="0 0 95.481 75.80151222677465" height="75.80151222677465" width="95.481"><g id="textblocktransform"><svg viewBox="0 0 95.481 75.80151222677465" height="75.80151222677465" width="95.481" id="textblock"><g><svg viewBox="0 0 95.481 75.80151222677465" height="75.80151222677465" width="95.481"><g><svg viewBox="0 0 95.481 75.80151222677465" height="75.80151222677465" width="95.481"><g><svg xmlns="http://www.w3.org/2000/svg" xmlns:xlink="http://www.w3.org/1999/xlink" version="1.1" x="0" y="0" viewBox="0 3.9563492063492065 49.976190476190474 39.675650793650796" enable-background="new 0 0 50.4 50.4" xml:space="preserve" width="95.481" height="75.80151222677465" class="icon-icon-0" data-fill-palette-color="accent" id="icon-0"><g fill="#ff4136" data-fill-palette-color="accent"><path d="M17.936 39.499c0 0-0.359 4.133 4.768 4.133h8.186c5.141 0 4.769-4.133 4.769-4.133H17.936z" fill="#ff4136" data-fill-palette-color="accent"></path><path d="M34.891 37.977c0.842 0 1.523-0.623 1.523-1.389 0-0.76-0.682-1.377-1.523-1.377H18.633c-0.834 0-1.519 0.617-1.519 1.377 0 0.766 0.684 1.389 1.519 1.389H34.891z" fill="#ff4136" data-fill-palette-color="accent"></path><polygon points="30.431,22.207 19.653,22.207 19.653,21.206 30.431,21.206 30.431,22.207  " fill="#ff4136" data-fill-palette-color="accent"></polygon><polygon points="27.774,18.77 20.122,18.77 20.122,17.769 27.774,17.769 27.774,18.77  " fill="#ff4136" data-fill-palette-color="accent"></polygon><g fill="#ff4136" data-fill-palette-color="accent"><polygon points="16.949,17.769 17.273,15.16 13.983,15.152 16.737,4.433 15.07,3.988 12.233,15.16 0,15.16 0.323,17.769   " fill="#ff4136" data-fill-palette-color="accent"></polygon><polygon points="0.447,18.77 3.509,43.52 13.749,43.52 16.825,18.77   " fill="#ff4136" data-fill-palette-color="accent"></polygon></g><polygon points="36.473,25.538 19.185,25.538 19.185,24.538 36.473,24.538 36.473,25.538  " fill="#ff4136" data-fill-palette-color="accent"></polygon><polygon points="47.219,33.453 38.054,33.453 38.054,32.452 47.219,32.452 47.219,33.453  " fill="#ff4136" data-fill-palette-color="accent"></polygon><polygon points="45.084,40.327 38.21,40.327 38.21,39.326 45.084,39.326 45.084,40.327  " fill="#ff4136" data-fill-palette-color="accent"></polygon><polygon points="50.376,36.785 38.991,36.785 38.991,35.784 50.376,35.784 50.376,36.785  " fill="#ff4136" data-fill-palette-color="accent"></polygon><path d="M30.892 28.266h-8.188c-5.127 0-4.768 5.483-4.768 5.483h17.723C35.659 33.749 36.03 28.266 30.892 28.266zM21.447 32.291c-0.317 0-0.575-0.256-0.575-0.573s0.257-0.576 0.575-0.576c0.318 0 0.576 0.259 0.576 0.576S21.765 32.291 21.447 32.291zM23.366 30.873c-0.317 0-0.575-0.259-0.575-0.576s0.258-0.576 0.575-0.576c0.318 0 0.576 0.259 0.576 0.576S23.685 30.873 23.366 30.873zM25.17 32.291c-0.317 0-0.575-0.256-0.575-0.573s0.258-0.576 0.575-0.576c0.318 0 0.575 0.259 0.575 0.576S25.488 32.291 25.17 32.291zM27.306 30.873c-0.317 0-0.575-0.259-0.575-0.576s0.258-0.576 0.575-0.576 0.575 0.259 0.575 0.576S27.623 30.873 27.306 30.873zM28.911 32.291c-0.317 0-0.575-0.256-0.575-0.573s0.258-0.576 0.575-0.576 0.575 0.259 0.575 0.576S29.229 32.291 28.911 32.291zM31.005 30.873c-0.316 0-0.574-0.259-0.574-0.576s0.258-0.576 0.574-0.576c0.318 0 0.576 0.259 0.576 0.576S31.323 30.873 31.005 30.873zM32.426 32.291c-0.317 0-0.575-0.256-0.575-0.573s0.258-0.576 0.575-0.576c0.316 0 0.575 0.259 0.575 0.576S32.742 32.291 32.426 32.291z" fill="#ff4136" data-fill-palette-color="accent"></path></g></svg></g></svg></g></svg></g></svg></g></svg></g></svg></g><defs></defs></svg><rect width="95.481" height="75.80151222677465" fill="none" stroke="none" visibility="hidden"></rect></g></svg></g></svg>